<?xml version="1.0" encoding="UTF-8"?><svg id="United_file" xmlns="http://www.w3.org/2000/svg" viewBox="0 0 30 30"><defs><style>.cls-1{fill:#fff;}.cls-2{stroke:#000;stroke-miterlimit:10;stroke-width:.25px;}</style></defs><path class="cls-1" d="M22.24,7.14c.43,.86,.82,1.87,.57,2.84-.09-.96-.47-1.88-.57-2.84h0Z"/><path class="cls-2" d="M14.76,16.34s.11-.11,.27-.04,.12,1.85,.1,2.05,.02,1.35,.02,1.85c0,.5,.1,.91,.15,1.25s-.18,1.14-.17,1.73,.19,1.51,.19,1.51c.11,.7,.16,1.14,.02,2.12s-.01,1.24,.12,1.42,1.05,.08,1.28,.03,.1-.19,.1-.26c0-.07-.24-.16-.34-.3s-.16-.39-.16-.39c0-.31-.08-.62-.09-.96-.01-.68,.35-1.96,.49-2.76s0-1.45-.02-2.28,.19-2.1,.32-2.5,.18-.7,.34-1.84-.3-3.49-.31-3.76,.05-.17,.02-.64-.14-.81-.19-1-.07-.8-.07-1.05,.21-1.84,.21-1.84c0,0,.12,.09,.16,.15s.04,.5,.1,.7,.26,.69,.39,.98,.2,.77,.2,.77c.04,.24,.08,.68,.37,1.15,.49,.8,.88,1.92,.95,1.98s.07,.71,.07,.71c0,0-.31,.52-.34,.73s.01,.21,.12,.12c.09-.07,.32-.3,.32-.3,0,0,.07,.11,.09,.26s-.16,.38-.17,.53c-.07,.57,.06,.56,.19,.49s.17-.37,.19-.43,.14-.88,.13-1.14-.03-.74-.08-.96-.27-1.43-.27-1.43c0,0-.15-1.19-.24-1.54s-.59-1.29-.67-1.52-.27-1.04-.27-1.04l-.05-1.39s-.13-1.06-.59-1.26-1.33-.64-1.63-.69-.35-.34-.35-.34c-.02-.16,.13-.7,.17-.87s.07-.11,.14-.13,.13-.29,.17-.49-.09-.33-.09-.33c.03-1.61-1.08-1.52-1.08-1.52l-.23-.04s-1.1-.1-1.08,1.52c0,0-.12,.13-.09,.33s.09,.47,.17,.49,.09-.03,.14,.13,.2,.71,.17,.87c0,0-.05,.29-.35,.34s-1.17,.49-1.63,.69-.59,1.26-.59,1.26l-.05,1.39s-.19,.82-.27,1.04-.58,1.15-.67,1.52-.24,1.54-.24,1.54c0,0-.22,1.22-.27,1.43s-.07,.69-.08,.96,.11,1.08,.13,1.14,.05,.37,.19,.43,.26,.08,.19-.49c-.02-.14-.19-.38-.17-.53s.09-.26,.09-.26c0,0,.23,.23,.32,.3,.11,.08,.16,.09,.12-.12s-.34-.73-.34-.73c0,0,0-.65,.07-.71s.47-1.18,.95-1.98c.29-.47,.32-.9,.37-1.15,0,0,.06-.47,.2-.77s.34-.78,.39-.98,.06-.64,.1-.7,.16-.15,.16-.15c0,0,.22,1.58,.21,1.84s-.02,.86-.07,1.05-.17,.53-.19,1,.04,.37,.02,.64-.47,2.63-.31,3.76,.21,1.45,.34,1.84,.36,1.67,.32,2.5-.16,1.48-.02,2.28,.5,2.08,.49,2.76c0,.34-.08,.65-.09,.96,0,0-.06,.25-.16,.39s-.34,.23-.34,.3-.13,.22,.1,.26,1.15,.14,1.28-.03,.26-.43,.12-1.42-.09-1.42,.02-2.12c0,0,.18-.92,.19-1.51s-.23-1.39-.17-1.73,.15-.75,.15-1.25,.04-1.64,.02-1.85-.06-1.99,.1-2.05,.27,.04,.27,.04"/></svg>